<svg width="812" height="690" fill="none" xmlns="http://www.w3.org/2000/svg" id="svg-1283903926_5892">
    <path fill-rule="evenodd" clip-rule="evenodd"
        d="M106.127.5V1h600V.5h-600Zm0 41V41h600v.5h-600Zm0 40v.5h16.123v40h-16.123v.5h16.123v40h-16.123v.5h16.123v40h-16.123v.5h16.123v40h-16.123v.5h16.123v40h-16.123v.5h16.123v40h-16.123v.5h16.123v40h-16.123v.5h16.123v40h-16.123v.5h16.123v40h-16.123v.5h16.123v40h-16.123v.5h16.123v40h-16.123v.5h16.123v40h-16.123v.5h16.123v40h-16.123v.5h16.123v40h-16.123v.5h16.123v32.793h.5V649h40v32.793h.5V649h40v32.793h.5V649h40v32.793h.5V649h40v32.793h.5V649h40v32.793h.5V649h40v32.793h.5V649h40v32.793h.5V649h40v32.793h.5V649h40v32.793h.5V649h40v32.793h.5V649h40v32.793h.5V649h40v32.793h.5V649h40v32.793h.5V649h40v32.793h.5V649h16.377v-.5H689.75v-40h16.377v-.5H689.75v-40h16.377v-.5H689.75v-40h16.377v-.5H689.75v-40h16.377v-.5H689.75v-40h16.377v-.5H689.75v-40h16.377v-.5H689.75v-40h16.377v-.5H689.75v-40h16.377v-.5H689.75v-40h16.377v-.5H689.75v-40h16.377v-.5H689.75v-40h16.377v-.5H689.75v-40h16.377v-.5H689.75v-40h16.377v-.5H689.75V82h16.377v-.5h-600Zm583.123.5h-40v40h40V82Zm-40.5 0h-40v40h40V82Zm-40.5 0h-40v40h40V82Zm-40.5 0h-40v40h40V82Zm-40.5 0h-40v40h40V82Zm-40.5 0h-40v40h40V82Zm-40.5 0h-40v40h40V82Zm-40.5 0h-40v40h40V82Zm-40.5 0h-40v40h40V82Zm-40.5 0h-40v40h40V82Zm-40.5 0h-40v40h40V82Zm-40.5 0h-40v40h40V82Zm-40.5 0h-40v40h40V82Zm-40.5 0h-40v40h40V82Zm-162-.207h.5v600h-.5v-600Zm40.5 0h.5v600h-.5v-600Zm41 0h-.5v600h.5v-600Zm40.5 80.707v-40h40v40h-40Zm40.5 0v-40h40v40h-40Zm40.5 0v-40h40v40h-40Zm40.5 0v-40h40v40h-40Zm40.5 0v-40h40v40h-40Zm40.5 0v-40h40v40h-40Zm40.5 0v-40h40v40h-40Zm40.5 0v-40h40v40h-40Zm40.5 0v-40h40v40h-40Zm40.5 0v-40h40v40h-40Zm40.5 0v-40h40v40h-40Zm40.5 0v-40h40v40h-40Zm40.5 0v-40h40v40h-40Zm40.5 0v-40h40v40h-40Zm-526.5.5v40h40v-40h-40Zm40.5 0v40h40v-40h-40Zm40.5 0v40h40v-40h-40Zm40.5 0v40h40v-40h-40Zm40.5 0v40h40v-40h-40Zm40.5 0v40h40v-40h-40Zm40.5 0v40h40v-40h-40Zm40.5 0v40h40v-40h-40Zm40.5 0v40h40v-40h-40Zm40.5 0v40h40v-40h-40Zm40.5 0v40h40v-40h-40Zm40.5 0v40h40v-40h-40Zm40.5 0v40h40v-40h-40Zm40.5 0v40h40v-40h-40Zm-526.5 80.5v-40h40v40h-40Zm40.5 0v-40h40v40h-40Zm40.5 0v-40h40v40h-40Zm40.5 0v-40h40v40h-40Zm40.5 0v-40h40v40h-40Zm40.5 0v-40h40v40h-40Zm40.5 0v-40h40v40h-40Zm40.5 0v-40h40v40h-40Zm40.5 0v-40h40v40h-40Zm40.5 0v-40h40v40h-40Zm40.5 0v-40h40v40h-40Zm40.5 0v-40h40v40h-40Zm40.5 0v-40h40v40h-40Zm40.5 0v-40h40v40h-40Zm-526.5.5v40h40v-40h-40Zm40.5 0v40h40v-40h-40Zm40.5 0v40h40v-40h-40Zm40.5 0v40h40v-40h-40Zm40.5 0v40h40v-40h-40Zm40.5 0v40h40v-40h-40Zm40.5 0v40h40v-40h-40Zm40.5 0v40h40v-40h-40Zm40.5 0v40h40v-40h-40Zm40.5 0v40h40v-40h-40Zm40.5 0v40h40v-40h-40Zm40.5 0v40h40v-40h-40Zm40.5 0v40h40v-40h-40Zm40.5 0v40h40v-40h-40Zm-526.5 80.5v-40h40v40h-40Zm40.5 0v-40h40v40h-40Zm40.5 0v-40h40v40h-40Zm40.5 0v-40h40v40h-40Zm40.5 0v-40h40v40h-40Zm40.5 0v-40h40v40h-40Zm40.5 0v-40h40v40h-40Zm40.5 0v-40h40v40h-40Zm40.5 0v-40h40v40h-40Zm40.5 0v-40h40v40h-40Zm40.5 0v-40h40v40h-40Zm40.5 0v-40h40v40h-40Zm40.5 0v-40h40v40h-40Zm40.5 0v-40h40v40h-40Zm-526.5.5v40h40v-40h-40Zm40.5 0v40h40v-40h-40Zm40.5 0v40h40v-40h-40Zm40.5 0v40h40v-40h-40Zm40.5 0v40h40v-40h-40Zm40.5 0v40h40v-40h-40Zm40.5 0v40h40v-40h-40Zm40.5 0v40h40v-40h-40Zm40.5 0v40h40v-40h-40Zm40.5 0v40h40v-40h-40Zm40.5 0v40h40v-40h-40Zm40.5 0v40h40v-40h-40Zm40.5 0v40h40v-40h-40Zm40.5 0v40h40v-40h-40Zm-526.5 80.5v-40h40v40h-40Zm40.5 0v-40h40v40h-40Zm40.5 0v-40h40v40h-40Zm40.5 0v-40h40v40h-40Zm40.5 0v-40h40v40h-40Zm40.5 0v-40h40v40h-40Zm40.5 0v-40h40v40h-40Zm40.5 0v-40h40v40h-40Zm40.5 0v-40h40v40h-40Zm40.5 0v-40h40v40h-40Zm40.5 0v-40h40v40h-40Zm40.5 0v-40h40v40h-40Zm40.5 0v-40h40v40h-40Zm40.5 0v-40h40v40h-40Zm-526.5.5v40h40v-40h-40Zm40.5 0v40h40v-40h-40Zm40.5 0v40h40v-40h-40Zm40.5 0v40h40v-40h-40Zm40.5 0v40h40v-40h-40Zm40.5 0v40h40v-40h-40Zm40.5 0v40h40v-40h-40Zm40.5 0v40h40v-40h-40Zm40.5 0v40h40v-40h-40Zm40.5 0v40h40v-40h-40Zm40.5 0v40h40v-40h-40Zm40.5 0v40h40v-40h-40Zm40.5 0v40h40v-40h-40Zm40.5 0v40h40v-40h-40Zm-526.5 80.5v-40h40v40h-40Zm40.5 0v-40h40v40h-40Zm40.5 0v-40h40v40h-40Zm40.5 0v-40h40v40h-40Zm40.5 0v-40h40v40h-40Zm40.5 0v-40h40v40h-40Zm40.5 0v-40h40v40h-40Zm40.5 0v-40h40v40h-40Zm40.5 0v-40h40v40h-40Zm40.5 0v-40h40v40h-40Zm40.5 0v-40h40v40h-40Zm40.5 0v-40h40v40h-40Zm40.5 0v-40h40v40h-40Zm40.5 0v-40h40v40h-40Zm-526.5.5v40h40v-40h-40Zm40.5 0v40h40v-40h-40Zm40.5 0v40h40v-40h-40Zm40.5 0v40h40v-40h-40Zm40.5 0v40h40v-40h-40Zm40.5 0v40h40v-40h-40Zm40.5 0v40h40v-40h-40Zm40.5 0v40h40v-40h-40Zm40.5 0v40h40v-40h-40Zm40.5 0v40h40v-40h-40Zm40.5 0v40h40v-40h-40Zm40.5 0v40h40v-40h-40Zm40.5 0v40h40v-40h-40Zm40.5 0v40h40v-40h-40Zm-526.5 80.5v-40h40v40h-40Zm40.5 0v-40h40v40h-40Zm40.5 0v-40h40v40h-40Zm40.5 0v-40h40v40h-40Zm40.5 0v-40h40v40h-40Zm40.5 0v-40h40v40h-40Zm40.5 0v-40h40v40h-40Zm40.5 0v-40h40v40h-40Zm40.5 0v-40h40v40h-40Zm40.5 0v-40h40v40h-40Zm40.5 0v-40h40v40h-40Zm40.5 0v-40h40v40h-40Zm40.5 0v-40h40v40h-40Zm40.5 0v-40h40v40h-40Zm-526.5.5v40h40v-40h-40Zm40.5 0v40h40v-40h-40Zm40.5 0v40h40v-40h-40Zm40.5 0v40h40v-40h-40Zm40.5 0v40h40v-40h-40Zm40.5 0v40h40v-40h-40Zm40.5 0v40h40v-40h-40Zm40.5 0v40h40v-40h-40Zm40.5 0v40h40v-40h-40Zm40.5 0v40h40v-40h-40Zm40.5 0v40h40v-40h-40Zm40.5 0v40h40v-40h-40Zm40.5 0v40h40v-40h-40Zm40.5 0v40h40v-40h-40Zm-526.5 80.5v-40h40v40h-40Zm40.5 0v-40h40v40h-40Zm40.5 0v-40h40v40h-40Zm40.5 0v-40h40v40h-40Zm40.5 0v-40h40v40h-40Zm40.5 0v-40h40v40h-40Zm40.5 0v-40h40v40h-40Zm40.5 0v-40h40v40h-40Zm40.5 0v-40h40v40h-40Zm40.5 0v-40h40v40h-40Zm40.5 0v-40h40v40h-40Zm40.5 0v-40h40v40h-40Zm40.5 0v-40h40v40h-40Zm40.5 0v-40h40v40h-40Zm81-566.707h-.5v600h.5v-600Zm40 0h.5v600h-.5v-600Zm41 0h-.5v600h.5v-600ZM106.127 689.5v-.5h600l.001.5H106.127Z"
        fill="url(#svg-1283903926_5892_a)"></path>
    <defs>
        <radialGradient id="svg-1283903926_5892_a" cx="0" cy="0" r="1" gradientUnits="userSpaceOnUse"
            gradientTransform="matrix(-98.99973 -167.00002 196.44925 -116.4576 423 366.5)">
            <stop stop-color="#C9D6F8"></stop>
            <stop offset="1" stop-color="#EEF0F8" stop-opacity="0"></stop>
        </radialGradient>
    </defs>
</svg>