<svg width="1299" height="256" viewBox="0 0 1299 256" fill="none" xmlns="http://www.w3.org/2000/svg">
<path d="M224 176C224 196.619 207.285 213.333 186.667 213.333C166.048 213.333 149.333 196.619 149.333 176C149.333 155.381 166.048 138.667 186.667 138.667C207.285 138.667 224 155.381 224 176Z" fill="white"/>
<path fill-rule="evenodd" clip-rule="evenodd" d="M13.3333 106.667C13.3333 102.248 16.9151 98.6666 21.3333 98.6666H234.667C239.085 98.6666 242.667 102.248 242.667 106.667C242.667 111.085 239.085 114.667 234.667 114.667H21.3333C16.9151 114.667 13.3333 111.085 13.3333 106.667Z" fill="white"/>
<path opacity="0.5" d="M44.6667 98.6667L49.2139 80.4778C55.0344 57.1958 57.9446 45.5549 66.625 38.7774C75.3054 32 87.3045 32 111.303 32H144.697C168.695 32 180.694 32 189.375 38.7774C198.055 45.5549 200.965 57.1958 206.786 80.4778L211.333 98.6667H44.6667Z" fill="white"/>
<path d="M106.667 176C106.667 196.619 89.952 213.333 69.3333 213.333C48.7147 213.333 32 196.619 32 176C32 155.381 48.7147 138.667 69.3333 138.667C89.952 138.667 106.667 155.381 106.667 176Z" fill="white"/>
<path opacity="0.5" d="M105.427 185.564C106.234 182.511 106.663 179.306 106.663 176C106.663 173.09 106.33 170.257 105.7 167.538L110.112 165.332C121.373 159.701 134.628 159.701 145.889 165.332L150.293 167.535C149.663 170.255 149.33 173.088 149.33 176C149.33 179.305 149.759 182.508 150.565 185.558L138.734 179.643C131.977 176.265 124.025 176.265 117.267 179.643L105.427 185.564Z" fill="white"/>
<path d="M368.48 66.2H451.46V84.02H377.66L387.92 73.4V132.08L377.66 122.9H448.22V140.18H377.66L387.92 131V194H368.48V66.2ZM475.531 66.2H494.971V127.76L485.611 120.92H563.371L554.011 127.76V66.2H573.451V194H554.011V131.72L563.371 138.56H485.611L494.971 131.72V194H475.531V66.2ZM599.984 66.2H683.144V84.02H619.424V121.28H680.984V138.56H619.424V176.18H684.584V194H599.984V66.2ZM805.821 196.88C793.581 196.88 782.961 194.24 773.961 188.96C765.081 183.56 758.241 175.88 753.441 165.92C748.641 155.84 746.241 143.96 746.241 130.28C746.241 116.6 748.641 104.72 753.441 94.64C758.241 84.56 765.081 76.82 773.961 71.42C782.961 66.02 793.581 63.32 805.821 63.32C818.181 63.32 828.861 66.02 837.861 71.42C846.861 76.82 853.701 84.56 858.381 94.64C863.181 104.72 865.581 116.6 865.581 130.28C865.581 143.96 863.181 155.84 858.381 165.92C853.701 175.88 846.861 183.56 837.861 188.96C828.861 194.24 818.181 196.88 805.821 196.88ZM805.821 179.06C814.101 179.06 821.181 177.14 827.061 173.3C833.061 169.46 837.621 163.88 840.741 156.56C843.861 149.24 845.421 140.48 845.421 130.28C845.421 120.08 843.861 111.32 840.741 104C837.621 96.56 833.061 90.92 827.061 87.08C821.181 83.12 814.101 81.14 805.821 81.14C797.661 81.14 790.641 83.12 784.761 87.08C778.881 90.92 774.321 96.56 771.081 104C767.961 111.32 766.401 120.08 766.401 130.28C766.401 140.48 767.961 149.24 771.081 156.56C774.321 163.88 778.881 169.46 784.761 173.3C790.641 177.14 797.661 179.06 805.821 179.06ZM884.176 98.24H901.636L902.356 123.62L900.736 123.08C902.056 114.56 904.696 108.32 908.656 104.36C912.616 100.28 918.076 98.24 925.036 98.24H934.216V115.34H925.036C920.116 115.34 916.036 116.18 912.796 117.86C909.676 119.42 907.276 121.82 905.596 125.06C904.036 128.3 903.256 132.44 903.256 137.48V194H884.176V98.24ZM977.801 196.16C967.841 196.16 959.861 193.88 953.861 189.32C947.981 184.64 945.041 178.22 945.041 170.06C945.041 161.9 947.501 155.48 952.421 150.8C957.341 146.12 965.081 142.76 975.641 140.72L1008.58 134.42C1008.58 126.98 1006.84 121.46 1003.36 117.86C1000 114.14 994.901 112.28 988.061 112.28C982.061 112.28 977.261 113.66 973.661 116.42C970.061 119.06 967.661 123.02 966.461 128.3L946.661 127.04C948.461 117.32 952.961 109.76 960.161 104.36C967.481 98.84 976.781 96.08 988.061 96.08C1000.9 96.08 1010.68 99.5 1017.4 106.34C1024.24 113.18 1027.66 122.9 1027.66 135.5V172.76C1027.66 175.04 1028.08 176.66 1028.92 177.62C1029.76 178.46 1031.08 178.88 1032.88 178.88H1036.3V194C1035.46 194.12 1034.38 194.24 1033.06 194.36C1031.86 194.48 1030.6 194.54 1029.28 194.54C1022.68 194.54 1017.76 192.98 1014.52 189.86C1011.4 186.62 1009.84 181.22 1009.84 173.66L1011.82 174.56C1010.5 180.8 1006.66 185.96 1000.3 190.04C993.941 194.12 986.441 196.16 977.801 196.16ZM981.041 181.04C986.681 181.04 991.541 179.96 995.621 177.8C999.821 175.52 1003 172.4 1005.16 168.44C1007.44 164.48 1008.58 159.98 1008.58 154.94V148.82L980.681 154.22C975.041 155.3 970.961 156.98 968.441 159.26C966.041 161.54 964.841 164.54 964.841 168.26C964.841 172.34 966.221 175.52 968.981 177.8C971.861 179.96 975.881 181.04 981.041 181.04ZM1094.12 196.16C1085 196.16 1077.02 194.12 1070.18 190.04C1063.34 185.96 1058 180.14 1054.16 172.58C1050.44 164.9 1048.58 156.08 1048.58 146.12C1048.58 136.16 1050.44 127.4 1054.16 119.84C1058 112.16 1063.34 106.28 1070.18 102.2C1077.02 98.12 1085 96.08 1094.12 96.08C1101.8 96.08 1108.64 97.46 1114.64 100.22C1120.76 102.86 1125.74 106.82 1129.58 112.1C1133.42 117.26 1135.82 123.5 1136.78 130.82L1116.98 131.9C1116.02 125.78 1113.5 121.04 1109.42 117.68C1105.34 114.32 1100.24 112.64 1094.12 112.64C1086.08 112.64 1079.78 115.58 1075.22 121.46C1070.66 127.34 1068.38 135.56 1068.38 146.12C1068.38 156.68 1070.66 164.9 1075.22 170.78C1079.78 176.66 1086.08 179.6 1094.12 179.6C1100.24 179.6 1105.34 177.86 1109.42 174.38C1113.5 170.9 1116.02 165.74 1116.98 158.9L1136.78 159.98C1135.82 167.3 1133.42 173.66 1129.58 179.06C1125.86 184.46 1120.94 188.66 1114.82 191.66C1108.7 194.66 1101.8 196.16 1094.12 196.16ZM1176.64 194C1170.04 194 1164.88 192.38 1161.16 189.14C1157.44 185.78 1155.58 180.62 1155.58 173.66L1155.76 66.2H1174.84V171.86C1174.84 174.02 1175.38 175.64 1176.46 176.72C1177.66 177.8 1179.28 178.34 1181.32 178.34H1189.06V194H1176.64ZM1247.57 196.16C1238.45 196.16 1230.47 194.12 1223.63 190.04C1216.79 185.96 1211.51 180.14 1207.79 172.58C1204.07 165.02 1202.21 156.2 1202.21 146.12C1202.21 136.16 1204.07 127.4 1207.79 119.84C1211.51 112.16 1216.73 106.28 1223.45 102.2C1230.17 98.12 1238.03 96.08 1247.03 96.08C1255.79 96.08 1263.47 98.12 1270.07 102.2C1276.67 106.16 1281.77 111.98 1285.37 119.66C1289.09 127.22 1290.95 136.28 1290.95 146.84V151.7H1222.19C1222.55 160.82 1224.95 167.78 1229.39 172.58C1233.95 177.38 1240.07 179.78 1247.75 179.78C1253.39 179.78 1258.07 178.52 1261.79 176C1265.51 173.48 1268.15 169.88 1269.71 165.2L1289.51 166.46C1286.99 175.58 1281.95 182.84 1274.39 188.24C1266.95 193.52 1258.01 196.16 1247.57 196.16ZM1270.61 137.3C1270.01 129.02 1267.61 122.78 1263.41 118.58C1259.33 114.38 1253.87 112.28 1247.03 112.28C1240.19 112.28 1234.55 114.44 1230.11 118.76C1225.79 123.08 1223.15 129.26 1222.19 137.3H1270.61Z" fill="white"/>
</svg>
